<?xml version="1.0" standalone="no"?>
<!DOCTYPE svg PUBLIC "-//W3C//DTD SVG 20010904//EN"
 "http://www.w3.org/TR/2001/REC-SVG-20010904/DTD/svg10.dtd">
<svg version="1.0" xmlns="http://www.w3.org/2000/svg"
 width="260.000000pt" height="260.000000pt" viewBox="0 0 260.000000 260.000000"
 preserveAspectRatio="xMidYMid meet">
<metadata>
Created by potrace 1.11, written by Peter Selinger 2001-2013
</metadata>
<g transform="translate(0.000000,260.000000) scale(0.100000,-0.100000)"
fill="#000000" stroke="none">
<path d="M16 2473 c-3 -4 -6 -537 -6 -1185 0 -1010 2 -1178 14 -1178 8 0 16 4
18 8 2 5 43 30 93 56 50 26 97 55 105 65 13 15 15 137 15 964 0 897 1 947 17
947 10 0 18 -4 18 -9 0 -5 12 -12 27 -16 15 -3 52 -17 81 -31 29 -13 58 -24
65 -24 7 0 17 -4 23 -8 5 -5 36 -19 69 -32 33 -13 63 -29 67 -34 4 -6 8 -7 8
-2 0 5 7 3 15 -4 8 -7 15 -9 15 -5 0 4 7 2 15 -5 8 -7 15 -9 15 -5 0 5 8 1 18
-8 9 -8 20 -16 25 -16 4 -1 9 -2 12 -2 3 -1 8 -2 13 -3 4 -1 23 -9 42 -18 19
-9 64 -29 100 -44 36 -14 76 -31 90 -37 14 -6 28 -10 33 -9 4 1 7 -3 7 -10 0
-6 3 -8 6 -5 4 3 16 1 28 -5 11 -7 23 -13 26 -14 8 -1 40 -15 86 -35 22 -10
65 -27 95 -39 30 -11 63 -25 74 -30 32 -15 89 -37 98 -38 4 0 19 -8 33 -16 13
-9 24 -14 24 -12 0 3 27 -8 59 -25 33 -16 64 -29 69 -29 5 0 22 -6 38 -14 16
-8 70 -31 119 -51 50 -20 106 -44 125 -52 19 -8 44 -19 55 -23 11 -4 45 -19
75 -33 30 -13 66 -28 80 -32 22 -7 10 -15 -95 -67 -66 -33 -125 -61 -131 -62
-7 -1 -18 -7 -25 -12 -8 -6 -45 -26 -84 -44 -38 -19 -73 -38 -76 -43 -3 -5 -9
-8 -13 -7 -4 1 -94 -42 -201 -95 -107 -53 -196 -95 -199 -93 -2 2 -12 -5 -22
-14 -11 -9 -26 -18 -34 -20 -8 -2 -17 -6 -20 -9 -7 -7 -224 -111 -229 -109 -2
1 -7 -2 -10 -7 -6 -10 -117 -63 -127 -62 -4 0 -10 -3 -13 -8 -10 -13 -161 -84
-162 -75 -1 4 -2 224 -3 490 -1 314 2 486 9 492 5 4 33 -3 60 -16 28 -13 101
-44 163 -69 61 -25 124 -51 140 -57 15 -6 32 -12 37 -14 6 -1 28 -10 50 -20
22 -10 42 -18 45 -19 3 -1 19 -7 35 -15 17 -7 49 -21 72 -31 24 -11 49 -19 57
-19 38 0 19 -20 -42 -46 -37 -16 -70 -32 -73 -37 -4 -5 -11 -7 -17 -3 -6 3
-12 2 -14 -4 -2 -6 -14 -12 -27 -15 -14 -2 -27 -8 -30 -12 -3 -5 -13 -9 -21
-11 -8 -2 -40 -15 -70 -29 -59 -27 -87 -39 -162 -72 -53 -22 -48 -8 -50 -153
0 -55 2 -63 18 -63 11 -1 26 3 34 7 8 4 40 18 70 31 30 14 93 42 140 64 47 22
100 46 118 53 17 7 32 16 32 21 0 5 3 8 8 8 4 -1 10 0 15 1 4 1 10 3 15 4 4 1
36 15 72 33 36 17 107 50 159 73 52 22 103 47 115 55 11 8 27 15 35 15 8 0 22
7 32 16 9 8 26 16 38 17 11 1 21 5 21 9 0 4 7 8 15 8 8 0 15 8 15 18 0 12 -27
28 -98 56 -53 22 -113 46 -132 54 -19 8 -36 13 -38 12 -2 -1 -14 6 -28 15 -13
9 -29 13 -33 10 -5 -3 -11 -1 -13 3 -1 5 -52 28 -113 52 -60 23 -115 46 -121
51 -6 5 -14 6 -17 2 -4 -3 -7 0 -7 7 0 7 -3 11 -6 8 -3 -4 -30 5 -60 18 -30
13 -55 23 -57 23 -1 -1 -18 6 -37 14 -19 9 -100 42 -180 74 -80 31 -147 61
-148 65 -2 5 -8 5 -13 2 -6 -3 -15 -2 -22 4 -25 19 -194 82 -208 77 -12 -4
-14 -123 -14 -780 1 -480 4 -778 10 -784 6 -6 38 4 83 25 41 19 77 34 82 34 5
0 10 3 12 8 2 4 23 17 48 29 210 101 306 146 313 145 4 -1 7 2 7 8 0 6 3 9 8
8 4 -1 74 30 155 70 82 40 153 72 158 72 5 0 9 5 9 12 0 6 3 9 6 6 3 -3 77 30
165 73 87 43 164 79 169 79 6 0 10 5 10 11 0 5 4 8 9 4 5 -3 12 -1 16 5 4 6
11 8 16 5 5 -4 9 -1 9 4 0 6 4 11 9 11 4 0 80 35 167 77 88 43 162 76 167 75
4 -1 7 2 7 8 0 6 3 9 8 8 4 -1 70 29 147 67 77 38 146 70 154 71 8 1 17 8 21
14 4 7 11 12 16 12 16 1 58 19 64 28 3 4 14 10 25 12 11 1 22 5 25 8 3 3 17
11 32 17 16 7 25 18 23 26 -3 7 -74 42 -158 77 -84 35 -174 74 -202 86 -45 19
-210 90 -275 117 -14 6 -31 9 -37 8 -7 -1 -13 2 -13 7 0 5 -21 17 -47 27 -27
10 -92 37 -145 61 -53 23 -99 40 -102 36 -3 -3 -6 0 -6 6 0 7 -4 12 -9 12 -5
0 -26 8 -47 17 -22 9 -41 17 -44 18 -3 1 -16 6 -30 12 -14 6 -65 28 -115 48
-49 20 -96 42 -102 47 -7 6 -13 7 -13 3 0 -4 -6 -2 -13 4 -8 6 -17 8 -20 4 -4
-3 -7 -1 -7 5 0 7 -5 12 -11 12 -5 0 -29 9 -52 19 -23 11 -82 36 -132 56 -49
20 -106 43 -125 52 -19 8 -51 22 -70 30 -19 9 -48 21 -65 28 -16 7 -75 32
-130 55 -55 23 -124 53 -154 66 -29 13 -60 24 -67 24 -8 0 -14 5 -14 12 0 6
-3 8 -6 5 -4 -3 -16 -1 -28 5 -11 7 -24 11 -28 10 -5 -1 -8 3 -8 8 0 5 -3 9
-7 8 -5 -1 -26 6 -48 16 -22 9 -78 33 -125 52 -47 19 -92 38 -101 44 -9 5 -20
6 -23 3z"/>
</g>
</svg>
