<svg id="svg" version="1.1" xmlns="http://www.w3.org/2000/svg" xmlns:xlink="http://www.w3.org/1999/xlink" width="400" height="364.0816326530612" viewBox="0, 0, 400,364.0816326530612"><g id="svgg"><path id="path0" d="M3.265 182.525 L 3.265 362.133 19.184 353.615 L 35.102 345.097 35.519 197.038 C 35.874 70.827,36.276 48.980,38.241 48.980 C 39.508 48.980,44.096 50.514,48.436 52.389 C 52.776 54.264,64.041 58.954,73.469 62.811 C 82.898 66.669,133.224 87.627,185.306 109.387 C 267.284 143.637,295.977 155.574,325.374 167.660 C 328.779 169.060,331.310 170.969,330.998 171.903 C 330.279 174.062,107.924 285.492,104.082 285.620 C 101.399 285.709,101.224 280.891,101.224 206.531 C 101.224 162.980,101.774 127.347,102.445 127.347 C 112.161 127.347,220.692 176.029,211.837 176.416 C 210.714 176.465,192.163 184.365,170.612 193.971 L 131.429 211.438 130.944 223.520 C 130.245 240.928,126.003 241.486,178.776 217.225 C 251.769 183.666,269.061 175.678,271.711 174.289 C 274.311 172.927,269.814 170.612,245.589 160.840 C 229.495 154.348,202.367 143.346,185.306 136.392 C 168.245 129.438,137.020 116.766,115.918 108.233 C 94.816 99.700,76.265 92.035,74.694 91.200 C 71.985 89.760,71.837 95.867,71.837 208.881 L 71.837 328.081 83.673 322.597 C 94.569 317.548,135.036 298.075,225.306 254.439 C 244.612 245.107,291.055 222.796,328.511 204.858 C 365.968 186.921,396.638 171.878,396.667 171.429 C 396.715 170.669,377.606 162.393,287.347 124.080 C 217.488 94.426,148.004 64.819,78.367 35.035 C 39.306 18.328,6.429 4.267,5.306 3.788 C 3.681 3.093,3.265 39.461,3.265 182.525 " stroke="none" fill="#000000" fill-rule="evenodd"></path></g></svg>